<?xml version="1.0" encoding="UTF-8"?>
<svg xmlns="http://www.w3.org/2000/svg" version="1.0" width="1090px" height="391px" viewBox="0 0 1090 391" preserveAspectRatio="xMidYMid meet" style="background: transparent;">
 
 <g fill="#0745a5">
  <path d="M324.88 376.17 c-1.67 -1.29 -15.62 -7.97 -22.04 -10.54 -14.78 -5.98 -31.75 -11.25 -47.04 -14.72 -27.51 -6.30 -65.94 -10.93 -90.55 -10.93 -4.43 0 -9.64 -0.19 -11.44 -0.39 l-3.41 -0.45 0 -14.65 0 -14.72 9.83 0 c25.58 0 59.77 3.41 84.32 8.42 29.44 5.98 53.54 14.07 65.75 22.24 9.83 6.49 13.56 14.14 17.10 34.77 0.39 2.31 -0.45 2.64 -2.51 0.96z"/>
  <path d="M11.57 363.63 c0 -0.45 1.61 -6.88 3.47 -14.33 7.91 -30.53 18.06 -69.54 23.78 -91.26 8.42 -32.01 19.02 -72.56 27.70 -105.85 4.05 -15.42 7.84 -29.05 8.42 -30.21 3.08 -6.04 10.48 -15.30 12.21 -15.30 0.51 0 0.90 0.06 0.90 0.19 0 2.64 -14.78 70.31 -31.17 142.48 -3.41 15.04 -6.88 30.33 -7.71 34.06 -0.84 3.73 -3.86 16.71 -6.68 28.92 -2.83 12.21 -6.17 27.06 -7.52 33.03 -1.74 7.58 -2.76 10.93 -3.47 11.18 -0.51 0.19 -4.95 1.99 -9.83 4.11 -9.38 3.98 -10.09 4.18 -10.09 2.96z"/>
  <path d="M47.24 350.78 c1.74 -7.78 20.44 -103.60 28.60 -146.40 2.89 -15.04 7.20 -37.73 9.70 -50.45 2.44 -12.73 5.66 -29.76 7.07 -37.92 1.48 -8.10 2.89 -15.10 3.28 -15.55 1.09 -1.35 8.87 -6.17 9.32 -5.78 0.39 0.45 -0.58 6.75 -9.13 61.83 -2.31 14.85 -6.81 44.22 -9.96 65.23 -3.21 21.02 -7.58 49.55 -9.70 63.30 -2.19 13.82 -5.14 33.03 -6.62 42.74 -1.48 9.77 -2.89 18.06 -3.15 18.45 -0.26 0.39 -1.41 0.96 -2.57 1.16 -1.09 0.26 -4.63 1.29 -7.84 2.25 -9.38 2.83 -9.38 2.83 -9 1.16z"/>
  <path d="M81.94 343.20 c-0.13 -0.19 0.32 -4.56 0.96 -9.70 0.64 -5.08 2.38 -18.06 3.79 -28.86 4.11 -30.98 7.46 -57.58 11.63 -92.23 2.12 -17.67 4.69 -39.33 5.78 -48.20 2.25 -18.77 6.11 -52.31 7.07 -62.02 1.16 -11.18 0.84 -10.35 5.08 -12.66 5.40 -3.02 5.91 -2.89 5.53 1.22 -0.19 1.86 -0.77 9.90 -1.35 17.87 -1.09 15.87 -4.24 56.24 -7.26 92.23 -1.09 12.73 -2.70 32.71 -3.60 44.35 -2.83 36.70 -8.23 94.41 -8.87 95.31 -0.32 0.39 -1.54 0.77 -2.70 0.77 -1.16 0 -4.50 0.45 -7.46 0.96 -7.97 1.41 -8.29 1.48 -8.61 0.96z"/>
  <path d="M116.84 339.53 c-0.32 -0.58 -0.19 -3.15 2.64 -57.39 1.09 -20.69 2.57 -48.84 3.28 -62.66 0.71 -13.75 1.86 -35.16 2.57 -47.56 1.93 -33.36 3.73 -67.55 4.24 -78.15 l0.45 -9.32 2.64 -1.41 c1.41 -0.77 2.89 -1.41 3.21 -1.41 0.32 0 1.16 -0.45 1.80 -1.09 0.64 -0.58 1.35 -0.84 1.61 -0.58 0.90 0.84 -1.54 258.17 -2.44 259 -0.58 0.51 -19.73 1.09 -19.99 0.58z"/>
  <path d="M309.78 323.92 c-28.99 -19.54 -85.09 -33.55 -140.43 -35.09 -6.68 -0.13 -13.75 -0.45 -15.55 -0.64 l-3.41 -0.32 0 -12.15 c0 -11.44 0.06 -12.21 1.29 -12.85 1.61 -0.84 30.14 0.19 44.35 1.61 30.46 3.08 60.16 9.83 83.36 19.02 7.39 2.89 17.61 8.23 20.69 10.73 5.53 4.50 9.51 12.79 11.95 25 0.58 2.96 0.96 5.59 0.84 5.98 -0.06 0.32 -1.48 -0.26 -3.08 -1.29z"/>
  <path d="M496.80 318.32 c-13.63 -1.03 -24.74 -7.26 -29.24 -16.52 -3.92 -8.10 -3.79 -5.40 -3.98 -64.14 l-0.26 -53.86 13.56 0 13.50 0 0.06 14.33 c0.06 7.84 0.26 31.81 0.51 53.28 0.39 38.05 0.39 39.01 1.74 40.75 2.51 3.41 4.50 4.43 8.61 4.43 4.56 0 6.75 -1.35 8.87 -5.46 l1.41 -2.83 0 -52.25 0 -52.25 13.82 0 13.82 0 0 52.89 c0 50.84 -0.06 53.15 -1.29 57.97 -2.38 9.32 -7.33 15.55 -15.68 19.67 -7.65 3.73 -14.46 4.82 -25.45 3.98z"/>
  <path d="M582.92 317.17 c-4.95 -0.96 -9.90 -2.83 -13.69 -5.01 -6.04 -3.53 -11.57 -11.50 -13.37 -19.41 -0.58 -2.25 -0.84 -18.83 -1.03 -56.04 l-0.26 -52.89 13.82 0 13.88 0 0.13 52.25 c0.19 51.48 0.19 52.25 1.54 54.76 1.80 3.47 5.33 5.46 9.77 5.46 4.43 0 7.46 -1.41 9.25 -4.43 l1.48 -2.31 0.19 -52.83 0.13 -52.89 13.88 0 13.82 0 -0.26 53.21 c-0.19 45.37 -0.39 53.66 -1.22 56.81 -4.31 15.94 -17.03 24.42 -36.44 24.23 -4.11 0 -9.32 -0.45 -11.63 -0.90z"/>
  <path d="M747 316.91 c-12.21 -3.02 -20.24 -10.41 -23.59 -21.92 -0.58 -1.93 -1.22 -6.94 -1.48 -11.05 l-0.39 -7.52 2.19 -0.39 c1.22 -0.19 7.26 -0.32 13.43 -0.19 l11.25 0.19 0.32 6.75 c0.39 7.58 1.41 10.22 5.08 12.66 8.87 5.98 17.93 -1.22 16.52 -13.18 -0.96 -8.03 -4.31 -12.02 -17.87 -21.27 -15.36 -10.41 -21.53 -16.45 -25.96 -25.26 -2.96 -5.85 -4.11 -11.12 -4.11 -18.83 0 -14.85 5.59 -24.61 17.61 -30.53 5.78 -2.89 11.25 -3.86 21.92 -3.86 6.81 0 11.89 1.16 17.29 4.05 10.93 5.72 16.45 16.77 16.45 32.65 l0 5.72 -12.85 -0.13 -12.85 -0.19 -0.26 -6.43 c-0.26 -6.88 -0.96 -9.38 -3.15 -11.83 -4.63 -5.01 -13.50 -3.21 -16.97 3.41 -1.48 2.76 -0.90 11.38 1.03 15.04 2.19 4.24 8.23 9.70 17.67 16.13 16.71 11.31 21.66 16.07 25.90 24.81 5.14 10.80 5.33 23.84 0.51 34.06 -2.64 5.46 -8.55 11.44 -14.07 14.14 -2.51 1.22 -6.30 2.70 -8.42 3.21 -5.33 1.35 -19.15 1.22 -25.19 -0.26z"/>
  <path d="M342.36 316.46 c-0.26 -0.26 -0.45 -30.21 -0.45 -66.58 l0 -66.07 18.96 0 c10.41 0 18.96 0.06 18.96 0.19 0 0.06 2.44 12.40 5.40 27.44 2.96 15.04 6.49 33.29 7.84 40.62 1.35 7.33 2.64 12.98 2.89 12.53 0.19 -0.45 0.90 -3.92 1.54 -7.84 0.96 -6.36 12.73 -67.93 13.63 -71.47 l0.32 -1.48 18.25 0 18.25 0 -0.13 66.39 -0.19 66.33 -12.21 0 -12.21 0 0.19 -47.56 c0.19 -29.82 0 -47.30 -0.39 -46.92 -0.32 0.39 -1.03 2.96 -1.61 5.78 -0.58 2.83 -4.69 23.78 -9.19 46.59 -4.50 22.82 -8.55 41.65 -8.87 41.90 -0.39 0.26 -4.24 0.51 -8.61 0.51 -7.58 0 -7.91 -0.06 -8.48 -1.41 -0.32 -0.84 -2.38 -10.03 -4.50 -20.44 -2.12 -10.41 -5.59 -26.93 -7.71 -36.63 -2.06 -9.70 -4.56 -21.79 -5.53 -26.80 -0.96 -5.33 -1.99 -9.19 -2.44 -9.19 -0.51 0 -0.71 12.66 -0.71 47.04 l0 47.11 -11.31 0.19 c-6.17 0.06 -11.44 -0.06 -11.70 -0.26z"/>
  <path d="M812.87 316.40 c-1.09 -0.26 -1.16 -3.98 -1.16 -66.45 l0 -66.13 13.50 0 13.50 0 0 61.89 c0.06 34 0.19 63.75 0.39 66.07 l0.32 4.24 -8.80 0.39 c-9.51 0.51 -16 0.45 -17.74 0z"/>
  <path d="M854.65 316.46 c-0.32 -0.26 -0.51 -30.21 -0.51 -66.58 l0 -66.07 14.07 0 14.07 0 0.45 1.74 c0.19 0.96 5.78 16.65 12.28 34.83 6.56 18.25 12.53 34.96 13.30 37.08 l1.41 3.98 -0.26 -38.82 -0.19 -38.82 12.73 0.13 12.79 0.19 0 66.07 0 66.13 -13.18 -0.13 c-7.20 0 -13.24 -0.13 -13.37 -0.26 -0.39 -0.39 -21.66 -60.61 -25.45 -72.17 -1.35 -4.11 -2.06 -5.33 -2.96 -5.33 -1.29 0 -1.29 2.76 -0.39 60.93 l0.26 16.84 -6.56 0 c-3.66 0 -9.19 0.19 -12.34 0.39 -3.15 0.26 -5.91 0.19 -6.17 -0.13z"/>
  <path d="M648.47 250.01 l0 -66.20 13.50 0 13.50 0 0.13 54.82 0.19 54.76 19.15 0.19 19.09 0.13 0 11.25 0 11.25 -32.78 0 -32.78 0 0 -66.20z"/>
  <path d="M951.18 250.01 l0 -66.20 13.82 0 13.82 0 0 66.20 0 66.20 -13.82 0 -13.82 0 0 -66.20z"/>
  <path d="M994.88 250.01 l0 -66.20 13.50 0 13.50 0 0 28.73 c0 15.87 0.26 28.47 0.58 28.15 0.26 -0.39 5.08 -11.31 10.67 -24.42 5.53 -13.05 10.93 -25.64 11.89 -27.96 l1.86 -4.18 14.20 -0.19 c11.38 -0.13 14.20 0 13.95 0.64 -0.51 1.29 -20.69 44.99 -24.23 52.57 -1.80 3.73 -3.21 7.13 -3.21 7.58 0 0.84 20.44 49.94 28.21 67.80 0.77 1.74 1.35 3.28 1.35 3.41 0 0.13 -6.56 0.26 -14.59 0.26 l-14.65 0 -12.28 -30.66 c-6.75 -16.84 -12.60 -30.78 -13.05 -30.91 -0.51 -0.19 -0.71 7.84 -0.71 30.66 l0 30.91 -13.50 0 -13.50 0 0 -66.20z"/>
  <path d="M297.24 275.33 c-1.41 -1.22 -5.59 -4.31 -9.32 -6.75 -21.92 -14.72 -56.62 -25.06 -94.67 -28.15 -4.50 -0.39 -16.20 -0.71 -25.90 -0.71 l-17.61 0 0 -13.05 c0 -9.32 0.19 -13.24 0.77 -13.82 1.16 -1.16 34.90 -1.03 46.59 0.19 31.30 3.15 59.58 11.70 80.40 24.23 9.25 5.59 13.69 9.77 16.52 15.49 2.96 6.04 7.78 24.94 6.30 24.87 -0.26 -0.06 -1.67 -1.09 -3.08 -2.31z"/>
  <path d="M281.18 223.59 c-14.72 -12.66 -38.95 -24.61 -60.41 -29.89 -17.03 -4.11 -30.40 -5.59 -51.74 -5.66 l-17.67 -0.06 -0.19 -12.28 -0.13 -12.28 2.96 -0.45 c1.67 -0.19 11.12 -0.39 21.08 -0.39 18.96 0 27.76 0.84 41.84 3.92 23.20 5.08 48.01 16.84 57.26 27.12 4.82 5.33 8.68 14.52 10.86 25.64 0.58 2.96 1.16 5.98 1.35 6.81 0.13 0.77 0.06 1.41 -0.19 1.35 -0.32 0 -2.51 -1.74 -5.01 -3.86z"/>
  <path d="M265.43 168.32 c-7.65 -6.75 -25.39 -16.90 -38.88 -22.30 -19.09 -7.58 -39.14 -10.86 -61.76 -10.22 l-13.05 0.39 -0.19 -10.09 c-0.13 -6.11 0.06 -10.41 0.45 -10.80 2.25 -2.57 28.41 -4.43 40.30 -2.89 7.91 1.03 19.28 3.60 26.86 5.98 13.69 4.31 32.26 14.78 39.08 21.98 5.01 5.27 8.23 13.11 10.67 26.03 1.03 5.40 0.71 5.66 -3.47 1.93z"/>
  <path d="M409.07 152.70 c-10.67 -2.76 -18.57 -10.09 -22.17 -20.50 -1.99 -5.72 -2.44 -16.07 -1.03 -22.49 2.25 -10.09 8.23 -18.12 16.52 -22.30 3.73 -1.93 4.95 -2.19 12.98 -2.83 9.83 -0.71 12.34 -0.32 18.38 2.70 6.17 3.08 11.89 10.60 13.24 17.35 l0.45 2.06 -5.78 0 -5.78 0 -0.84 -2.38 c-1.09 -3.28 -6.68 -8.74 -9.96 -9.70 -1.48 -0.45 -4.82 -0.77 -7.39 -0.77 -4.11 0 -5.33 0.32 -8.61 1.99 -4.95 2.51 -6.17 3.73 -8.55 8.16 -2.57 4.88 -3.60 10.41 -3.15 17.35 0.84 14.27 8.61 22.62 20.95 22.62 7.33 0 13.95 -4.43 17.03 -11.44 l1.22 -2.76 5.21 0.19 5.21 0.19 -0.13 2.12 c-0.26 6.17 -7.58 15.23 -15.30 19.02 -3.47 1.67 -4.56 1.86 -11.57 2.06 -4.95 0.13 -8.87 -0.06 -10.93 -0.64z"/>
  <path d="M471.41 152.77 c-11.50 -3.86 -17.67 -12.60 -17.67 -25.19 0 -10.60 4.63 -18.90 12.98 -23.27 3.15 -1.61 4.11 -1.80 12.28 -1.99 8.87 -0.26 8.93 -0.26 12.98 1.74 5.01 2.51 9.32 7.07 11.38 12.15 1.22 3.08 1.48 4.82 1.48 11.38 0 7.07 -0.13 8.03 -1.74 11.44 -2.19 4.56 -7.20 9.96 -11.50 12.34 -2.96 1.61 -4.11 1.80 -10.48 1.99 -4.82 0.19 -7.97 0 -9.70 -0.58z m12.08 -8.87 c3.41 -0.90 7.07 -4.43 8.80 -8.42 1.22 -2.83 1.41 -4.18 1.16 -9.13 -0.51 -11.18 -5.85 -16.52 -15.49 -15.62 -4.95 0.45 -8.42 2.76 -10.67 7.20 -1.48 2.76 -1.67 3.98 -1.67 9.64 0 5.46 0.26 6.88 1.48 9.45 2.96 5.98 9.64 8.74 16.39 6.88z"/>
  <path d="M580.35 152.70 c-5.91 -1.74 -10.15 -5.08 -12.28 -9.70 -2.19 -4.76 -1.93 -5.21 3.73 -5.72 3.21 -0.32 5.08 -0.26 5.21 0.19 0.71 2.12 3.41 5.08 5.59 6.11 3.34 1.67 9.83 1.67 12.34 0.06 2.51 -1.67 3.34 -2.89 3.41 -5.01 0 -3.21 -2.19 -4.56 -11.18 -6.81 -8.10 -1.99 -12.40 -3.66 -14.78 -5.78 -3.53 -3.15 -4.76 -10.73 -2.38 -15.36 2.96 -5.72 7.71 -8.23 16.52 -8.87 7.46 -0.51 11.89 0.45 16.13 3.53 2.70 1.99 5.98 7.52 5.98 10.15 0 1.41 -0.19 1.48 -5.14 1.48 l-5.14 0 -0.90 -2.19 c-1.22 -3.02 -3.86 -4.24 -8.93 -4.24 -4.11 0 -7.20 1.03 -8.23 2.70 -0.96 1.48 -0.64 4.76 0.58 5.78 1.16 1.09 5.01 2.31 13.63 4.37 3.02 0.71 6.75 1.93 8.35 2.76 7.91 4.05 9.38 14.91 2.89 21.34 -4.56 4.50 -7.33 5.59 -15.42 5.85 -4.63 0.13 -8.10 -0.06 -9.96 -0.64z"/>
  <path d="M632.08 152.64 c-3.15 -1.16 -6.30 -4.56 -7.26 -7.91 -0.51 -1.61 -0.77 -7.97 -0.77 -17.61 l0 -15.17 -1.41 -0.39 c-0.84 -0.19 -2.83 -0.39 -4.50 -0.39 l-3.08 0 0 -4.11 0 -4.11 2.44 -0.39 c1.29 -0.19 3.28 -0.26 4.31 -0.19 l1.93 0.13 0.19 -7.46 0.19 -7.46 2.70 -0.39 c1.48 -0.19 3.92 -0.58 5.40 -0.84 l2.70 -0.39 0.19 8.23 0.19 8.29 6.62 0.19 c7.39 0.19 6.94 -0.26 6.04 5.91 l-0.45 2.89 -6.11 0.32 -6.11 0.32 -0.19 12.53 c-0.19 13.75 0 15.94 1.74 18.06 1.03 1.29 1.67 1.41 5.98 1.35 l4.82 -0.13 0.45 3.92 c0.32 2.44 0.19 4.24 -0.19 4.63 -1.09 1.09 -12.92 1.22 -15.81 0.13z"/>
  <path d="M704.71 152.06 c-4.05 -1.86 -6.94 -5.08 -8.42 -9.51 -1.03 -2.96 -1.22 -5.66 -1.22 -21.40 l0 -18 5.66 -0.19 5.59 -0.19 0 16.90 c0 15.17 0.13 17.16 1.22 19.60 1.48 3.15 3.28 4.50 7.01 5.08 5.40 0.84 11.44 -3.08 12.92 -8.55 0.39 -1.41 0.71 -8.93 0.71 -17.35 0 -17.35 -0.39 -16.45 6.94 -16.13 l4.31 0.19 0.19 24.94 0.13 24.87 -5.46 0 c-5.40 0 -5.46 0 -5.46 -1.61 0 -1.29 -0.32 -1.61 -1.48 -1.61 -0.84 0 -2.06 0.58 -2.64 1.22 -3.15 3.47 -14.27 4.43 -19.99 1.74z"/>
  <path d="M764.99 152.64 c-6.81 -2.12 -12.53 -7.33 -15.10 -13.75 -1.16 -3.02 -1.41 -4.88 -1.48 -11.38 0 -7.65 0 -7.78 2.44 -12.60 2.51 -5.21 5.72 -8.55 10.41 -10.93 3.66 -1.93 17.29 -2.44 22.04 -0.90 5.98 1.99 11.31 8.35 12.66 15.04 l0.45 2.06 -5.40 0 -5.33 0 -1.61 -3.34 c-2.06 -4.24 -5.27 -6.30 -10.09 -6.30 -5.85 0 -11.31 3.41 -13.18 8.29 -2.19 5.78 -1.67 14.33 1.16 19.22 5.08 8.68 17.74 8.68 22.11 0.06 l1.29 -2.51 5.53 0 5.53 0 -0.45 1.80 c-1.48 6.11 -7.33 12.53 -13.50 14.85 -4.18 1.61 -13.11 1.80 -17.48 0.39z"/>
  <path d="M818.08 152.64 c-3.60 -1.16 -7.26 -4.95 -8.23 -8.48 -0.39 -1.41 -0.71 -8.80 -0.71 -17.35 l0 -14.97 -2.51 0 c-1.41 0 -3.28 -0.26 -4.18 -0.64 -1.54 -0.58 -1.67 -0.90 -1.67 -4.50 l0 -3.86 3.21 -0.06 c1.80 -0.06 3.60 -0.13 4.05 -0.19 0.51 -0.06 0.84 -2.19 1.09 -7.46 l0.32 -7.33 3.86 -0.84 c7.20 -1.48 6.68 -2.06 6.88 7.39 l0.19 8.16 6.94 0.19 6.94 0.19 -0.19 4.31 -0.19 4.31 -6.75 0.32 -6.75 0.32 -0.19 10.28 c-0.39 19.99 0.26 21.53 8.87 21.53 l5.14 0 0 4.11 c0 2.64 -0.32 4.37 -0.77 4.69 -1.61 0.90 -12.28 0.84 -15.36 -0.13z"/>
  <path d="M855.10 152.32 c-7.33 -2.44 -12.66 -7.91 -14.97 -15.42 -1.67 -5.33 -1.41 -15.30 0.45 -20.12 1.93 -4.95 7.39 -10.80 12.15 -13.05 3.28 -1.54 4.37 -1.74 11.63 -1.80 7.65 -0.06 8.35 0.06 12.02 1.74 4.95 2.31 9.32 6.68 11.63 11.70 1.67 3.60 1.80 4.43 1.80 11.89 0 7.58 -0.13 8.23 -1.99 12.21 -2.51 5.27 -6.62 9.51 -11.50 11.95 -3.41 1.61 -4.63 1.86 -10.60 1.99 -5.33 0.13 -7.52 -0.06 -10.60 -1.09z m13.37 -8.42 c3.34 -0.90 6.81 -4.11 8.55 -7.97 1.22 -2.57 1.54 -4.31 1.54 -8.74 0 -4.76 -0.26 -5.98 -1.74 -9 -1.22 -2.25 -2.76 -4.11 -4.56 -5.40 -2.57 -1.80 -3.21 -1.93 -7.91 -1.86 -3.66 0.06 -5.59 0.45 -6.81 1.22 -4.82 3.15 -7.26 8.29 -7.26 15.10 0 11.89 8.23 19.41 18.19 16.65z"/>
  <path d="M944.11 153.02 c-10.35 -3.15 -14.20 -14.52 -7.91 -23.07 2.89 -3.86 7.84 -5.66 20.31 -7.20 3.08 -0.39 6.43 -0.96 7.33 -1.35 1.54 -0.58 1.61 -0.84 1.35 -3.86 -0.51 -5.08 -2.44 -6.62 -8.74 -6.88 -4.31 -0.19 -5.21 -0.06 -7.20 1.29 -1.22 0.84 -2.70 2.44 -3.21 3.53 -0.96 2.12 -0.96 2.12 -5.91 2.12 l-5.01 0 0 -1.74 c0.06 -2.57 2.06 -6.62 4.56 -9.13 3.79 -3.79 6.56 -4.63 16.20 -4.76 8.35 -0.13 8.61 -0.06 12.34 1.80 4.50 2.31 7.07 5.85 8.03 11.25 0.32 1.93 0.71 11.12 0.77 20.44 l0.19 16.84 -5.21 0 c-5.08 0 -5.27 -0.06 -5.66 -1.61 -0.51 -1.99 -2.19 -2.06 -4.63 -0.13 -1.03 0.77 -2.83 1.80 -4.11 2.19 -2.44 0.90 -10.93 1.03 -13.50 0.26z m16.13 -10.03 c3.08 -2.06 4.50 -4.69 4.88 -9.45 0.32 -3.02 0.19 -3.73 -0.58 -3.73 -1.99 0 -14.07 1.99 -15.55 2.57 -5.91 2.25 -5.59 10.35 0.45 12.21 3.21 0.96 8.03 0.26 10.80 -1.61z"/>
  <path d="M514.15 127.57 l0 -25.45 5.33 0.19 5.27 0.19 0.19 3.21 0.19 3.21 3.02 -2.89 c3.79 -3.66 7.20 -4.76 14.07 -4.43 8.80 0.45 14.52 4.95 16.20 12.79 0.39 1.93 0.71 10.67 0.71 20.89 l0 17.67 -5.40 0 -5.40 0 -0.26 -17.16 c-0.19 -15.62 -0.32 -17.48 -1.48 -19.73 -1.86 -3.73 -4.18 -5.14 -8.23 -5.14 -4.95 0 -9.32 2.31 -11.38 6.04 -1.61 2.83 -1.61 3.21 -1.80 19.47 l-0.26 16.52 -5.40 0 -5.40 0 0 -25.39z"/>
  <path d="M657.47 127.57 l0 -25.39 5.14 0 5.14 0 0 3.98 0 3.98 1.99 -2.70 c2.83 -3.86 7.58 -6.04 12.73 -5.78 2.19 0.13 3.92 0.39 3.92 0.71 0 0.26 0 2.64 0 5.27 l0 4.76 -3.15 -0.39 c-5.33 -0.64 -11.05 2.12 -13.43 6.43 -0.90 1.74 -1.16 4.43 -1.41 18.12 l-0.32 16.07 -5.27 0.19 -5.33 0.19 0 -25.45z"/>
  <path d="M899.57 152.51 c-0.26 -0.19 -0.45 -11.50 -0.45 -25 l0 -24.61 2.12 -0.39 c1.09 -0.26 3.53 -0.32 5.27 -0.19 l3.21 0.19 -0.19 3.86 -0.19 3.86 2.70 -3.08 c3.41 -3.92 4.95 -4.69 11.05 -5.21 l5.01 -0.45 -0.19 5.33 -0.19 5.33 -4.18 0.19 c-4.76 0.19 -7.26 1.16 -9.77 3.79 -3.02 3.15 -3.28 4.69 -3.60 21.27 l-0.26 15.55 -4.95 0 c-2.76 0 -5.21 -0.19 -5.40 -0.45z"/>
  <path d="M252.06 118.96 c-8.16 -7.65 -24.94 -18.38 -36.63 -23.52 -8.48 -3.73 -14.72 -5.78 -23.27 -7.84 -10.93 -2.57 -29.24 -2.76 -39.01 -0.39 l-1.48 0.32 0 -11.95 0 -11.89 3.41 -1.03 c4.11 -1.22 13.11 -2.25 20.18 -2.25 19.47 0 46.72 10.54 64.33 25 5.91 4.82 8.10 7.58 10.73 13.24 2.57 5.46 7.26 24.23 6.04 24.10 -0.13 -0.06 -2.06 -1.74 -4.31 -3.79z"/>
  <path d="M240.49 70.76 c-6.62 -7.58 -22.04 -20.12 -32.01 -25.90 -11.44 -6.75 -19.92 -9.19 -31.75 -9.13 -9.51 0 -13.50 0.84 -20.63 4.05 -2.25 1.03 -4.31 1.74 -4.56 1.54 -0.32 -0.13 -0.51 -5.14 -0.51 -11.18 l0 -10.86 1.93 -1.16 c2.96 -1.80 17.29 -4.63 23.52 -4.63 12.47 0 25.84 4.50 39.14 13.18 13.37 8.61 21.14 18.64 25.64 32.91 1.74 5.53 3.21 13.18 2.83 14.33 -0.13 0.45 -1.74 -1.03 -3.60 -3.15z"/>
 </g>
</svg>