<?xml version="1.0" encoding="UTF-8"?>
<svg xmlns="http://www.w3.org/2000/svg" version="1.0" width="389px" height="454px" viewBox="0 0 389 454" preserveAspectRatio="xMidYMid meet" style="background: transparent;">
 
 <g fill="#0351c4">
  <path d="M378.67 444.55 c-12.93 -8.27 -38.25 -18.72 -61.31 -25.33 -40.72 -11.67 -84.53 -17.50 -141.09 -18.80 l-11.95 -0.28 -0.12 -16.65 -0.08 -16.69 5.92 -0.28 c17.26 -0.89 52.68 1.30 76.46 4.66 42.51 6.04 86.84 18.48 115.97 32.58 l6.89 3.36 2.84 8.87 c9.24 29.17 9.56 30.15 9.20 30.15 -0.16 0 -1.38 -0.73 -2.71 -1.58z"/>
  <path d="M7.70 430.66 c0 -0.28 0.89 -4.42 2.03 -9.24 1.09 -4.78 3.36 -14.83 5.07 -22.29 3.44 -15.28 4.78 -20.91 17.22 -74.15 4.86 -20.83 10.45 -44.61 12.36 -52.88 1.90 -8.23 5.02 -21.64 6.93 -29.78 10.33 -44.25 14.14 -60.94 20.46 -89.15 2.03 -9.24 2.63 -11.26 4.17 -14.38 3.69 -7.46 10.98 -17.22 12.89 -17.22 0.65 0 0.77 0.20 0.57 1.13 -0.12 0.61 -0.32 1.74 -0.45 2.51 -1.13 7.17 -5.88 33.47 -9.97 55.11 -4.94 26.14 -16.29 85.86 -17.38 91.37 -0.65 3.36 -1.90 9.93 -2.80 14.59 -1.82 9.40 -9.44 49.07 -11.59 60.17 -0.73 3.89 -3.36 17.67 -5.88 30.59 -7.82 40.64 -8.51 44.13 -8.79 44.41 -0.36 0.32 -4.30 1.86 -8.83 3.40 -1.54 0.53 -5.71 2.15 -9.20 3.61 -3.53 1.46 -6.48 2.67 -6.60 2.67 -0.12 0 -0.20 -0.20 -0.20 -0.49z"/>
  <path d="M49.31 416.47 c0.32 -2.07 14.91 -90.20 16.78 -101.63 1.09 -6.81 4.38 -27.03 7.25 -44.98 2.92 -17.95 6.36 -39.26 7.70 -47.41 1.34 -8.14 4.54 -27.92 7.09 -43.97 2.59 -16.05 5.31 -32.98 6.08 -37.68 0.73 -4.66 2.03 -12.80 2.84 -18.03 1.46 -9.44 1.46 -9.52 2.76 -10.66 0.73 -0.65 1.86 -1.42 2.51 -1.78 0.69 -0.36 2.43 -1.42 3.89 -2.39 3.32 -2.19 4.13 -2.31 3.85 -0.45 -0.12 0.69 -0.81 6.12 -1.46 12.03 -0.69 5.92 -2.07 17.02 -3.08 24.72 -0.97 7.70 -2.27 17.63 -2.80 22.08 -1.66 13.49 -16.86 134.85 -27.55 219.50 -1.66 13.33 -3.04 24.52 -3.04 24.84 0 0.36 -0.41 0.77 -0.89 0.97 -0.81 0.32 -21.52 5.71 -21.92 5.71 -0.08 0 -0.08 -0.41 0 -0.89z"/>
  <path d="M88.62 408.17 c-0.12 -0.20 1.05 -12.28 2.59 -26.87 3.16 -30.23 8.14 -79.26 13.13 -129.26 4.09 -41.33 6.40 -63.82 9.32 -91.98 1.82 -17.55 5.88 -57.66 5.88 -58.15 0 -0.08 1.90 -1.18 4.21 -2.39 4.66 -2.51 6.73 -2.92 6.73 -1.34 0 0.93 -2.92 43.64 -4.46 64.71 -0.45 6.12 -1.18 16.61 -1.62 23.30 -1.82 26.74 -11.35 183.64 -12.60 207.63 -0.61 10.94 -0.49 10.70 -4.25 11.14 -2.31 0.24 -12.85 2.27 -16.17 3.08 -1.99 0.49 -2.51 0.49 -2.76 0.12z"/>
  <path d="M127.24 399.41 c0 -1.62 0.45 -13.78 1.01 -27.03 6.28 -148.39 7.25 -170.92 9.32 -215.17 0.77 -16.37 1.78 -37.97 2.23 -48.02 0.49 -10.01 0.97 -18.36 1.13 -18.48 0.16 -0.12 1.74 -0.73 3.53 -1.34 1.78 -0.61 3.57 -1.30 3.93 -1.50 0.41 -0.20 1.01 -0.36 1.34 -0.36 0.53 0 0.61 9.81 0.61 89.06 0 48.95 0.20 111.19 0.41 138.26 0.20 27.07 0.45 57.46 0.49 67.47 l0.12 18.23 -4.25 0.32 c-2.35 0.16 -7.01 0.57 -10.33 0.89 -3.36 0.32 -6.89 0.61 -7.82 0.61 l-1.70 0 0 -2.96z"/>
  <path d="M360.23 384.18 c-7.94 -5.02 -26.22 -14.02 -38.54 -19 -29.34 -11.83 -55.92 -18.56 -89.59 -22.73 -19.49 -2.43 -23.75 -2.67 -46.80 -2.67 l-21.19 0 0 -14.99 c0 -8.75 0.16 -15.24 0.41 -15.60 0.57 -0.93 33.71 -0.81 45.79 0.12 46.03 3.69 83.96 12.93 118.60 28.85 6.44 3 20.26 10.21 22.61 11.83 0.93 0.65 4.21 10.17 12.12 35.29 0.41 1.22 0.12 1.13 -3.40 -1.09z"/>
  <path d="M345.12 324.98 c-7.05 -5.35 -20.02 -13.09 -31.48 -18.80 -27.19 -13.53 -53.73 -21.35 -86.55 -25.41 -5.59 -0.69 -9.93 -0.89 -23.66 -1.05 -17.79 -0.20 -24.80 0.16 -34.44 1.86 -2.35 0.41 -4.38 0.61 -4.58 0.49 -0.16 -0.16 -0.24 -7.94 -0.20 -17.30 l0.12 -16.98 4.46 -0.53 c6.32 -0.73 38.45 -0.85 45.38 -0.16 36.31 3.57 67.55 12.32 95.63 26.78 10.05 5.19 23.58 13.66 25.81 16.13 0.93 1.01 12.76 36.43 12.32 36.87 -0.04 0.08 -1.34 -0.77 -2.80 -1.90z"/>
  <path d="M326.40 263.91 c-10.86 -10.29 -30.63 -22.29 -49.92 -30.35 -24.07 -10.01 -51.62 -15.68 -78.93 -16.25 -11.55 -0.24 -21.76 0.24 -27.76 1.30 -1.90 0.32 -3.93 0.61 -4.54 0.61 l-1.13 0 0 -15.15 c0 -11.63 0.12 -15.24 0.53 -15.52 1.99 -1.58 39.14 -2.19 50.93 -0.81 18.19 2.07 32.01 5.11 47.49 10.37 18.11 6.20 35.25 15.44 51.99 28.08 l2.80 2.15 5.02 15.20 c4.98 15.20 7.54 23.46 7.29 23.70 -0.08 0.08 -1.74 -1.42 -3.77 -3.32z"/>
  <path d="M307.15 198.47 c-13.33 -11.10 -31.57 -22.29 -46.60 -28.61 -12.89 -5.39 -26.38 -9.32 -39.31 -11.43 -16.82 -2.71 -36.71 -2.71 -51.22 0 -2.47 0.45 -4.78 0.81 -5.19 0.81 -0.69 0 -0.73 -0.77 -0.73 -14.06 0 -7.78 0.12 -14.47 0.24 -14.95 0.20 -0.77 0.85 -0.93 6.16 -1.74 11.39 -1.66 29.17 -2.11 40.44 -1.05 31.16 3 57.50 13.09 80.19 30.80 8.63 6.73 7.58 5.02 12.28 19.45 5.19 15.88 7.50 23.34 7.29 23.50 -0.08 0.08 -1.70 -1.13 -3.57 -2.71z"/>
  <path d="M290.74 138.26 c-3.97 -4.21 -11.71 -10.70 -18.23 -15.24 -16.86 -11.71 -35.46 -20.18 -52.47 -23.91 -10.01 -2.19 -13.13 -2.47 -25.93 -2.47 -12.48 0.04 -16.41 0.36 -24.72 2.23 -5.96 1.34 -5.35 2.47 -5.11 -9.60 0.12 -5.75 0.20 -13.01 0.20 -16.17 l0.04 -5.67 5.59 -0.93 c8.06 -1.34 21.68 -1.95 29.46 -1.30 22.16 1.82 40.56 8.27 59.57 20.91 10.05 6.69 22.61 17.63 23.58 20.54 0.28 0.73 1.78 5.07 3.36 9.64 2.59 7.50 8.19 25.20 7.98 25.37 -0.04 0.04 -1.54 -1.50 -3.32 -3.40z"/>
  <path d="M275.01 82.50 c-10.17 -12.76 -26.58 -27.31 -40.08 -35.42 -13.98 -8.43 -30.39 -12.80 -45.30 -12.08 -9.28 0.45 -13.13 1.05 -20.87 3.28 -1.34 0.41 -2.84 0.81 -3.36 0.89 l-0.89 0.20 0.08 -14.10 0.12 -14.14 5.88 -1.34 c5.79 -1.34 6.08 -1.38 18.07 -1.58 10.09 -0.20 13.05 -0.12 16.86 0.45 23.30 3.36 43.60 16.01 56.69 35.37 6.52 9.64 12.72 25.24 15.20 38.25 0.32 1.82 0.57 3.36 0.45 3.44 -0.08 0.08 -1.34 -1.38 -2.84 -3.24z"/>
 </g>
</svg>